<?xml version="1.0" standalone="no"?>
<!DOCTYPE svg PUBLIC "-//W3C//DTD SVG 20010904//EN"
 "http://www.w3.org/TR/2001/REC-SVG-20010904/DTD/svg10.dtd">
<svg version="1.0" xmlns="http://www.w3.org/2000/svg"
 width="1248.000000pt" height="1248.000000pt" viewBox="0 0 1248.000000 1248.000000"
 preserveAspectRatio="xMidYMid meet">
<metadata>
Created by potrace 1.14, written by Peter Selinger 2001-2017
</metadata>
<g transform="translate(0.000000,1248.000000) scale(0.100000,-0.100000)"
fill="#000000" stroke="none">
<path d="M7665 9996 c-58 -16 -130 -61 -156 -99 -13 -17 -27 -35 -32 -38 -18
-12 -44 -135 -42 -195 2 -33 10 -75 19 -92 9 -18 14 -32 11 -32 -3 0 7 -17 22
-37 25 -34 38 -47 79 -82 58 -49 231 -64 324 -29 111 43 191 160 195 288 4
134 -82 264 -202 305 -58 20 -162 25 -218 11z"/>
<path d="M3228 9785 c-2 -1 -48 -6 -103 -9 -55 -4 -113 -8 -130 -10 -16 -3
-52 -7 -80 -11 -92 -12 -100 -13 -130 -19 -16 -3 -52 -10 -80 -15 -27 -5 -95
-22 -150 -36 -55 -15 -116 -31 -135 -35 -148 -39 -464 -175 -659 -286 -135
-76 -352 -232 -489 -352 -162 -142 -368 -371 -483 -537 -18 -27 -36 -52 -39
-55 -13 -12 -130 -201 -130 -210 0 -6 -4 -10 -8 -10 -4 0 -13 -12 -19 -27 -7
-16 -28 -57 -47 -92 -20 -35 -36 -70 -36 -77 0 -8 -4 -14 -9 -14 -5 0 -14 -12
-19 -27 -6 -16 -33 -77 -60 -138 -49 -111 -64 -146 -66 -155 -1 -3 -4 -9 -7
-15 -4 -5 -14 -35 -24 -65 -10 -30 -21 -59 -25 -65 -5 -5 -9 -14 -10 -20 -5
-23 -8 -32 -24 -80 -9 -27 -18 -59 -21 -70 -3 -11 -17 -60 -31 -110 -14 -49
-27 -99 -29 -110 -2 -11 -4 -20 -5 -20 -1 0 -3 -7 -5 -16 -1 -10 -10 -48 -18
-85 -9 -38 -18 -82 -21 -99 -3 -16 -8 -41 -11 -55 -3 -14 -7 -38 -10 -55 -3
-16 -7 -41 -10 -55 -2 -14 -7 -45 -10 -70 -3 -25 -8 -52 -10 -60 -2 -8 -7 -42
-10 -75 -11 -107 -15 -139 -20 -186 -11 -101 -17 -265 -17 -504 0 -279 5 -392
26 -575 4 -30 9 -71 11 -90 5 -46 15 -118 21 -150 3 -14 7 -42 10 -64 2 -21 6
-42 9 -46 3 -4 7 -25 11 -46 3 -22 9 -55 14 -74 5 -19 11 -46 14 -60 8 -40 35
-138 63 -230 15 -47 28 -87 28 -90 1 -3 5 -13 8 -22 16 -41 20 -54 23 -63 1
-5 7 -23 14 -40 6 -16 11 -31 11 -32 0 -2 11 -28 24 -58 14 -31 25 -62 25 -70
0 -8 5 -15 10 -15 6 0 10 -6 10 -13 0 -14 123 -267 150 -307 9 -14 52 -78 95
-144 124 -188 302 -390 464 -526 30 -25 59 -49 65 -55 57 -51 304 -219 331
-224 6 -1 17 -8 25 -16 22 -19 186 -99 287 -140 48 -20 97 -40 108 -45 39 -18
259 -84 315 -95 8 -2 33 -8 55 -14 22 -6 58 -13 80 -17 22 -3 45 -7 50 -9 31
-6 84 -16 115 -19 19 -3 51 -7 70 -10 232 -38 696 -38 938 -1 17 3 49 7 70 10
123 18 427 89 482 112 19 8 19 8 55 18 17 4 53 18 80 30 28 12 55 23 60 24 8
3 156 75 216 106 24 12 21 35 -16 125 -15 36 -27 70 -29 75 -2 11 -48 128 -52
134 -1 1 -39 -16 -84 -38 -45 -23 -105 -51 -133 -62 -29 -11 -61 -24 -72 -29
-25 -11 -174 -59 -200 -64 -11 -2 -40 -10 -65 -17 -25 -7 -48 -13 -52 -15 -5
-1 -9 -2 -10 -4 -2 -1 -12 -3 -23 -5 -11 -1 -33 -5 -50 -9 -16 -4 -48 -9 -69
-12 -22 -3 -43 -7 -47 -9 -8 -5 -113 -19 -151 -19 -16 -1 -28 -3 -28 -6 0 -7
-150 -13 -325 -14 -131 0 -259 7 -360 19 -93 11 -132 16 -145 20 -8 3 -31 7
-50 9 -69 10 -173 34 -222 52 -21 8 -38 12 -38 9 0 -4 -154 47 -195 65 -11 5
-40 17 -65 27 -82 33 -239 112 -295 148 -31 19 -60 35 -65 35 -6 0 -10 5 -10
10 0 6 -7 10 -15 10 -8 0 -15 5 -15 10 0 6 -6 10 -13 10 -7 0 -24 11 -39 25
-15 14 -30 25 -34 25 -3 0 -21 12 -38 28 -18 15 -50 41 -72 57 -52 40 -238
226 -295 295 -89 108 -259 357 -259 379 0 5 -7 14 -15 21 -9 7 -13 15 -11 17
2 3 -9 27 -25 54 -16 28 -29 56 -29 64 0 8 -4 16 -9 19 -5 3 -21 36 -36 73
-15 38 -33 82 -40 98 -7 17 -23 59 -35 95 -12 36 -26 74 -31 85 -14 31 -76
260 -98 360 -16 72 -16 71 -36 210 -2 11 -4 20 -5 20 -1 0 -3 16 -6 35 -2 19
-6 53 -9 75 -3 22 -8 65 -11 95 -3 30 -7 82 -10 115 -14 150 -6 752 11 865 2
14 6 50 10 80 18 164 38 292 72 450 13 63 26 124 28 135 1 11 10 43 18 70 19
61 60 198 62 205 4 16 20 65 46 135 30 81 36 97 60 150 7 17 13 32 14 35 11
34 155 332 165 340 3 3 14 21 24 40 9 19 30 55 46 80 16 25 33 52 37 60 4 8
18 31 32 51 14 20 33 47 41 59 8 13 23 32 33 42 9 10 17 22 17 27 0 5 3 11 8
13 4 2 32 35 62 73 64 83 300 319 388 390 35 28 73 58 85 68 11 10 78 56 147
102 214 142 469 263 705 331 74 22 235 62 273 69 17 3 47 8 65 11 17 3 46 8
62 10 17 2 44 6 60 8 203 31 664 26 900 -10 17 -3 46 -7 65 -9 49 -7 91 -14
120 -20 58 -11 126 -27 140 -32 8 -4 20 -5 25 -5 6 1 67 -16 135 -37 502 -157
837 -392 1148 -806 10 -14 84 -132 112 -179 46 -77 144 -287 155 -331 3 -14
15 -46 26 -70 18 -39 48 -142 79 -265 16 -69 35 -142 41 -163 5 -20 7 -42 4
-47 -3 -5 -1 -11 5 -15 6 -4 8 -10 6 -14 -3 -4 -1 -25 4 -47 4 -21 11 -61 15
-89 3 -27 8 -63 11 -80 5 -29 8 -59 21 -220 4 -44 7 -132 7 -197 1 -64 3 -115
6 -113 18 11 -13 -654 -35 -765 -3 -14 -8 -45 -11 -70 -8 -60 -29 -167 -54
-265 -11 -44 -22 -87 -24 -96 -8 -30 -59 -174 -77 -217 -10 -23 -19 -46 -20
-50 -14 -49 -147 -266 -213 -347 -128 -158 -314 -280 -476 -311 -14 -3 -41 -9
-60 -13 -20 -4 -81 -8 -135 -9 -172 -2 -294 38 -403 132 -30 25 -51 46 -48 46
5 0 -9 20 -39 54 -31 35 -88 175 -100 247 -3 19 -8 42 -11 53 -16 50 -22 326
-10 446 3 36 8 85 11 110 2 25 7 83 10 130 4 47 8 96 11 110 2 14 7 56 9 94 3
38 7 93 10 123 19 204 27 288 39 443 4 47 9 96 11 110 2 14 7 61 10 105 3 44
8 96 10 115 2 19 6 69 10 110 3 41 8 95 10 120 3 25 7 77 10 115 3 39 7 86 9
105 2 19 7 67 10 105 4 39 9 93 12 120 2 28 6 80 8 117 l4 68 -86 68 c-48 38
-114 86 -147 108 -33 21 -62 41 -65 44 -36 36 -274 139 -360 156 -14 3 -45 10
-70 15 -103 24 -386 33 -507 17 -125 -17 -364 -99 -435 -150 -16 -11 -28 -16
-28 -11 0 4 -4 3 -8 -2 -4 -6 -29 -24 -57 -40 -27 -16 -55 -33 -61 -39 -6 -6
-23 -20 -38 -31 -104 -75 -256 -230 -351 -357 -41 -57 -80 -108 -85 -115 -6
-7 -10 -15 -10 -18 0 -4 -13 -26 -29 -49 -60 -86 -231 -464 -257 -566 -11 -46
-57 -207 -62 -220 -7 -19 -6 -18 -15 -60 -4 -19 -9 -46 -12 -60 -3 -14 -7 -36
-10 -50 -3 -14 -7 -35 -9 -46 -23 -113 -39 -232 -52 -389 -10 -112 -10 -508 0
-580 22 -161 26 -186 47 -275 109 -453 355 -747 701 -839 93 -25 169 -34 288
-34 125 0 186 8 335 47 23 6 91 29 100 35 6 3 15 6 22 7 37 6 251 133 303 180
146 132 302 323 366 446 15 30 23 32 28 6 14 -70 20 -89 27 -94 5 -3 9 -13 9
-23 0 -10 20 -58 44 -107 141 -289 382 -456 706 -490 98 -10 220 -11 220 -2 0
5 8 4 19 -1 10 -6 20 -9 22 -6 2 2 24 6 49 10 38 5 142 26 200 40 8 1 44 14
80 28 209 79 395 213 548 396 72 84 89 106 112 146 13 22 26 42 29 45 19 17
161 303 161 323 0 7 4 17 9 22 9 10 87 236 95 272 1 10 6 25 9 33 7 17 34 132
42 183 3 17 10 48 15 67 5 19 12 59 15 89 4 30 9 63 11 75 22 112 27 234 27
616 0 342 -4 471 -17 555 -3 17 -8 62 -11 100 -3 39 -8 77 -10 85 -2 8 -7 33
-10 55 -3 23 -8 52 -10 65 -3 14 -10 52 -16 85 -22 123 -20 117 -59 261 -35
133 -118 384 -131 399 -5 5 -9 14 -9 21 0 6 -14 42 -32 80 -17 38 -32 71 -33
74 -13 54 -218 401 -269 456 -6 7 -20 24 -31 40 -86 119 -283 318 -420 423
-22 17 -44 34 -50 39 -33 27 -224 152 -233 152 -5 0 -15 7 -22 15 -7 9 -15 13
-18 11 -3 -3 -17 3 -31 13 -23 16 -92 50 -211 104 -19 8 -55 23 -80 32 -25 9
-61 23 -80 30 -36 14 -67 24 -75 25 -3 0 -24 8 -47 16 -47 17 -201 57 -258 67
-14 3 -36 8 -50 11 -14 4 -38 9 -55 11 -16 2 -30 4 -30 5 0 2 -5 2 -90 14 -27
4 -66 9 -85 12 -19 2 -57 7 -85 9 -27 3 -70 7 -95 10 -49 6 -517 15 -522 10z
m465 -2064 c81 -14 165 -41 262 -86 78 -36 158 -91 151 -103 -3 -5 -8 -44 -11
-88 -4 -43 -9 -97 -11 -119 -5 -47 -11 -122 -19 -220 -3 -38 -7 -88 -9 -110
-2 -22 -7 -76 -11 -120 -4 -44 -9 -93 -10 -110 -2 -16 -6 -68 -9 -115 -4 -47
-9 -96 -11 -110 -2 -14 -7 -63 -10 -110 -3 -47 -8 -103 -10 -125 -3 -22 -7
-71 -10 -110 -3 -38 -7 -90 -10 -115 -2 -25 -6 -76 -10 -115 -3 -38 -7 -92
-10 -120 -7 -68 -13 -146 -21 -234 -5 -70 -30 -153 -84 -276 -35 -83 -94 -200
-102 -203 -5 -2 -8 -8 -8 -13 0 -31 -148 -229 -234 -314 -96 -93 -124 -113
-236 -167 -36 -17 -77 -37 -92 -45 -16 -8 -28 -12 -28 -9 0 3 -11 1 -26 -4
-14 -6 -37 -12 -52 -15 -15 -3 -38 -7 -52 -11 -55 -12 -234 -11 -292 2 -65 15
-161 53 -166 66 -2 4 -9 8 -17 8 -18 0 -147 127 -183 181 -31 46 -104 189 -97
189 3 0 -4 20 -15 45 -11 25 -19 48 -19 50 0 3 -2 18 -5 33 -4 15 -9 38 -12
52 -3 14 -7 39 -10 55 -2 17 -7 40 -10 53 -26 123 -26 534 1 730 3 17 7 49 10
70 3 20 10 61 16 89 6 29 12 65 14 80 2 16 4 29 6 31 1 1 2 5 3 10 1 4 8 36
15 72 7 36 15 72 18 80 4 8 7 21 9 27 10 51 59 210 67 221 5 6 7 12 4 12 -9 0
87 229 135 321 50 95 139 232 195 299 45 54 203 210 213 210 4 0 19 11 34 24
36 31 175 100 251 125 61 19 97 28 170 38 22 3 41 6 43 7 7 7 237 -4 295 -13z"/>
<path d="M10987 8544 c-1 -1 -31 -5 -67 -8 -36 -3 -76 -8 -90 -11 -14 -2 -50
-10 -80 -16 -77 -15 -274 -80 -278 -90 -2 -5 -11 -9 -19 -9 -9 0 -31 -9 -49
-21 -19 -11 -34 -17 -34 -13 0 4 -8 0 -17 -8 -10 -8 -42 -28 -70 -44 -29 -16
-53 -32 -53 -36 0 -5 -5 -8 -11 -8 -6 0 -30 -15 -53 -32 -22 -18 -45 -36 -51
-40 -40 -30 -140 -126 -199 -194 -95 -108 -102 -118 -146 -186 -24 -37 -41
-54 -46 -47 -4 6 -8 93 -9 193 -2 99 -4 251 -5 337 l-3 155 -224 0 c-218 1
-224 0 -228 -20 -3 -19 0 -4193 3 -4207 2 -5 445 -5 462 0 3 0 5 652 5 1448
l0 1448 41 100 c104 253 252 459 449 624 104 87 285 187 395 216 3 1 12 5 20
8 8 4 24 8 35 10 11 2 31 7 45 10 14 4 41 10 60 13 45 9 406 10 445 1 39 -9
72 -15 115 -23 19 -4 41 -12 49 -18 8 -6 16 -10 18 -8 1 1 4 2 6 1 1 0 9 -2
17 -4 16 -3 108 -46 150 -70 79 -44 179 -145 237 -240 26 -42 80 -160 89 -195
2 -8 12 -47 23 -86 26 -97 30 -119 47 -274 4 -36 8 -715 9 -1510 1 -795 3
-1448 4 -1451 0 -3 106 -5 234 -5 l232 1 -2 1480 c-1 1539 -2 1573 -28 1705
-3 14 -7 41 -10 60 -2 19 -6 44 -9 55 -2 11 -12 49 -21 85 -8 36 -17 72 -19
80 -16 65 -124 303 -157 344 -5 6 -36 45 -69 87 -97 124 -208 212 -354 280
-74 34 -159 66 -196 74 -8 2 -16 4 -17 5 -4 3 -12 5 -63 14 -25 5 -53 10 -62
12 -10 2 -26 6 -35 8 -61 13 -405 30 -416 20z"/>
<path d="M7516 8461 c-2 -6 0 -4195 3 -4216 1 -7 80 -11 236 -11 204 0 235 2
236 16 0 17 0 4176 -1 4201 0 13 -30 15 -235 15 -130 0 -237 -2 -239 -5z"/>
</g>
</svg>
